<svg id="_6" data-name="6" xmlns="http://www.w3.org/2000/svg" xmlns:xlink="http://www.w3.org/1999/xlink" width="35.687" height="52.032" viewBox="0 0 35.687 52.032">
  <defs>
    <clipPath id="clip-path">
      <rect id="Rectangle_803" data-name="Rectangle 803" width="35.687" height="52.032" fill="#37a59b"/>
    </clipPath>
  </defs>
  <g id="Group_14631" data-name="Group 14631" clip-path="url(#clip-path)">
    <path id="Path_225" data-name="Path 225" d="M18.511,24.675c-.975-.233-2.024-.407-3.013-.75A.756.756,0,0,0,14.4,24.3a7.906,7.906,0,0,1-13.38-.178,6.71,6.71,0,0,1,.588-7.945A5.223,5.223,0,0,0,2.9,13.133a18.592,18.592,0,0,0-.374-7.907A3.13,3.13,0,0,1,4.7,1.384C6.252.912,7.826.492,9.407.113a3.434,3.434,0,0,1,4.208,2.368,13.417,13.417,0,0,0,3.2,5.761,17.56,17.56,0,0,0,1.741,1.415,1.961,1.961,0,0,0,.925.324,7.506,7.506,0,0,1,6.891,6.981,7.55,7.55,0,0,1-5.19,7.158,26.487,26.487,0,0,1-2.668.554m5.043-7.492a4.505,4.505,0,0,0-4-4.422,6.653,6.653,0,0,1-3.637-1.679,15.1,15.1,0,0,1-4.867-7.4c-.362-1.048-.433-1.077-1.512-.782-1.145.312-2.287.636-3.434.94-.551.146-.745.394-.564,1.005a20.776,20.776,0,0,1-.2,11.165,2.278,2.278,0,0,1-.747,1.028,4.376,4.376,0,0,0-.283,6.525,4.971,4.971,0,0,0,8.345-2.178,1.517,1.517,0,0,1,2.648-.862,6.733,6.733,0,0,0,1.237.787c3.223,1.528,7.034-.722,7.019-4.131" transform="translate(0 0)" fill="#37a59b"/>
    <path id="Path_226" data-name="Path 226" d="M36.812,179.363c.507-2.171-.365-4.5-1.83-6.7-.456-.685-.763-1.469-1.207-2.163a3.116,3.116,0,0,1,2.606-4.814,7.77,7.77,0,0,1,.93-.008,4.008,4.008,0,0,0,2.858-.775,4.728,4.728,0,0,1,5.445.282,2.724,2.724,0,0,0,1.305.47c.689.078,1.394.007,2.091.024a3.137,3.137,0,0,1,2.836,4.829c-.9,1.654-1.859,3.28-2.755,4.938a2.614,2.614,0,0,0-.31,1.163c-.03,2.144-.01,4.289-.015,6.433a3.134,3.134,0,0,1-3.369,3.4q-2.675.024-5.35,0a3.121,3.121,0,0,1-3.232-3.224c-.019-1.111,0-2.222,0-3.852m-.591-10.768a3.151,3.151,0,0,0,.18.5c1.078,2,2.177,3.986,3.234,6a3.009,3.009,0,0,1,.357,1.3c.036,2.169.032,4.339.007,6.508-.007.592.17.833.794.819,1.472-.034,2.945-.028,4.417,0,.566.01.783-.2.778-.767-.019-2.376-.024-4.752,0-7.128a2.835,2.835,0,0,1,.288-1.242c.909-1.737,1.868-3.449,2.8-5.171.425-.782.253-1.1-.623-1.108-1.136-.009-2.276.07-3.407-.007a1.831,1.831,0,0,1-1.206-.616,1.425,1.425,0,0,0-2.408-.011,1.754,1.754,0,0,1-1.719.944c-1.149-.041-2.3-.011-3.5-.011" transform="translate(-27.231 -134.421)" fill="#37a59b"/>
    <path id="Path_227" data-name="Path 227" d="M154.119,111.088a6.357,6.357,0,0,1,.535-.849c1.033-1.153,2.09-2.284,3.126-3.435.385-.428.794-.576,1.28-.2a.931.931,0,0,1,.029,1.428c-1.088,1.208-2.176,2.417-3.314,3.576a1.214,1.214,0,0,1-1,.283c-.26-.07-.423-.5-.655-.8" transform="translate(-126.197 -87.114)" fill="#37a59b"/>
    <path id="Path_228" data-name="Path 228" d="M161.91,146.1h-2.474c-.624,0-.986-.308-.967-.938.018-.608.41-.825.988-.824,1.674,0,3.349-.014,5.023-.026a.838.838,0,0,1,.965.866c.013.621-.362.929-.984.929H161.91V146.1" transform="translate(-129.758 -118.165)" fill="#37a59b"/>
    <path id="Path_229" data-name="Path 229" d="M156.754,162.052a4.637,4.637,0,0,1,.749.519q1.611,1.723,3.187,3.479c.5.555.524,1.169.074,1.5-.556.411-.968.042-1.335-.342-1.069-1.118-2.153-2.224-3.168-3.39a1.466,1.466,0,0,1-.226-1.1c.045-.243.439-.422.72-.666" transform="translate(-127.745 -132.693)" fill="#37a59b"/>
  </g>
</svg>
